<svg xmlns="http://www.w3.org/2000/svg" viewBox="0 0 397.45 142.89"><g data-name="Layer 2"><path d="M275.7 93.13v11.14h-9.88V94.2c0-2.9-.84-5-2.52-6.34a10.19 10.19 0 0 0-6.49-2 15.48 15.48 0 0 0-5.18.87 19.61 19.61 0 0 0-4.12 1.94v15.59h-10V88.48a6.51 6.51 0 0 1 .92-3.58 9 9 0 0 1 3-2.71 25 25 0 0 1 7-3.1 30.23 30.23 0 0 1 8.57-1.26 23.93 23.93 0 0 1 8.71 1.5 14.54 14.54 0 0 1 6.1 4.21 14.06 14.06 0 0 1 1.19 1.11 6 6 0 0 1 .87 1.31 14.72 14.72 0 0 1 1.31 3.19 14.13 14.13 0 0 1 .54 4m-38.15 6.19h10v25q-.68.2-1.89.48a11.66 11.66 0 0 1-2.66.29 6.6 6.6 0 0 1-4.12-1.11 4.18 4.18 0 0 1-1.35-3.49V99.32Zm28.27 0h9.88v25c-.39.13-1 .29-1.84.48a12.24 12.24 0 0 1-2.71.29 6.35 6.35 0 0 1-4-1.06 4.25 4.25 0 0 1-1.31-3.49V99.32Zm38.06-5.61v10.56H294V94.2c0-2.9-.81-5-2.42-6.34a9.92 9.92 0 0 0-6.49-2 13.72 13.72 0 0 0-5.76 1.26 16.62 16.62 0 0 0-4.89 3.39L269.79 84a26.69 26.69 0 0 1 6.87-4.36 22.79 22.79 0 0 1 9.49-1.84 23.36 23.36 0 0 1 9.15 1.7 13.49 13.49 0 0 1 6.29 5.23 16.1 16.1 0 0 1 2.29 8.95M294 99.32h9.88v25c-.39.13-1 .29-1.84.48a11.8 11.8 0 0 1-2.61.29 6.53 6.53 0 0 1-4.11-1.06 4.25 4.25 0 0 1-1.31-3.49V99.32ZM70.74 8.14a14 14 0 0 0-10.27 4.12q-4.17 4.11-4.16 11.86t4 11.72a14 14 0 0 0 10.41 4.07 17.62 17.62 0 0 0 6.39-1 25.06 25.06 0 0 0 4.55-2.28 7.1 7.1 0 0 1 2 1.84 4.14 4.14 0 0 1 .82 2.53q0 3-4 5a23 23 0 0 1-10.27 2 28.46 28.46 0 0 1-12.49-2.61 19.11 19.11 0 0 1-8.47-7.94q-3-5.32-3.05-13.27t3.2-13.36a20.66 20.66 0 0 1 8.62-8A26.19 26.19 0 0 1 70 0a20.77 20.77 0 0 1 10.08 2.2C82.7 3.65 84 5.35 84 7.28a4.16 4.16 0 0 1-.73 2.42 6.06 6.06 0 0 1-1.79 1.74 23.41 23.41 0 0 0-4.55-2.33 17.37 17.37 0 0 0-6.19-1M136.3 24a27.29 27.29 0 0 1-2.81 12.69 20.08 20.08 0 0 1-7.94 8.38 23.84 23.84 0 0 1-12.1 2.95 23.92 23.92 0 0 1-12.1-2.95 20.13 20.13 0 0 1-7.94-8.33A27.17 27.17 0 0 1 90.6 24a26.7 26.7 0 0 1 2.86-12.73 20.36 20.36 0 0 1 8-8.33 25.82 25.82 0 0 1 24 0 20.5 20.5 0 0 1 8 8.33A26.81 26.81 0 0 1 136.3 24M113.45 8a11.27 11.27 0 0 0-9.25 4.26q-3.44 4.26-3.44 11.72t3.34 11.82a12.43 12.43 0 0 0 18.69 0q3.34-4.26 3.34-11.72t-3.39-11.72a11.22 11.22 0 0 0-9.29-4.26M181 15.31v11.14h-9.88V16.38c0-2.9-.84-5-2.52-6.34a10.19 10.19 0 0 0-6.49-2 15.48 15.48 0 0 0-5.18.87 19.27 19.27 0 0 0-4.11 1.94v15.6h-10V10.66a6.57 6.57 0 0 1 .92-3.58 9 9 0 0 1 3-2.71 25 25 0 0 1 7-3.1A30.23 30.23 0 0 1 162.27 0 23.93 23.93 0 0 1 171 1.51a14.54 14.54 0 0 1 6.1 4.21 14.06 14.06 0 0 1 1.16 1.11 6 6 0 0 1 .87 1.31 14.72 14.72 0 0 1 1.31 3.19 13.82 13.82 0 0 1 .55 4m-38.15 6.2h10v25q-.68.19-1.89.48a11.68 11.68 0 0 1-2.67.29 6.6 6.6 0 0 1-4.07-1.06 4.18 4.18 0 0 1-1.36-3.49V21.51Zm28.27 0H181v25c-.39.13-1 .29-1.84.48a12.24 12.24 0 0 1-2.71.29 6.35 6.35 0 0 1-4-1.06 4.25 4.25 0 0 1-1.31-3.49V21.51Zm38.06-5.62v10.54h-9.88V16.38c0-2.9-.81-5-2.42-6.34a9.92 9.92 0 0 0-6.49-2 13.72 13.72 0 0 0-5.76 1.26 16.62 16.62 0 0 0-4.89 3.39l-4.65-6.49a26.59 26.59 0 0 1 6.88-4.36A22.76 22.76 0 0 1 191.43 0a23.36 23.36 0 0 1 9.15 1.7 13.49 13.49 0 0 1 6.29 5.23 16.2 16.2 0 0 1 2.28 9m-9.88 5.62h9.88v25c-.39.13-1 .29-1.84.48a11.8 11.8 0 0 1-2.61.29 6.58 6.58 0 0 1-4.12-1.06 4.25 4.25 0 0 1-1.31-3.49V21.51Zm30.26 25.33a18.19 18.19 0 0 1-5.23-2.42v-8.81a19.08 19.08 0 0 0 4.6 3 15.17 15.17 0 0 0 6.54 1.31q6.3 0 10-3.87t3.73-12.2a19.65 19.65 0 0 0-1.84-9.25 11.4 11.4 0 0 0-4.94-5 15 15 0 0 0-6.78-1.55 16.48 16.48 0 0 0-5.33.77 21.93 21.93 0 0 0-3.87 1.74v31.24h-10V10a6.15 6.15 0 0 1 .82-3.34 8.74 8.74 0 0 1 2.86-2.57A29.86 29.86 0 0 1 235.62 0a28 28 0 0 1 12 2.52 19 19 0 0 1 8.47 7.75q3.11 5.24 3.1 13.56 0 8-2.86 13.41a18.74 18.74 0 0 1-7.94 8 24.64 24.64 0 0 1-11.57 2.66 24.34 24.34 0 0 1-7.34-1.06M226.43 64a10 10 0 0 1-1.89.53 13.7 13.7 0 0 1-2.66.24 6.53 6.53 0 0 1-4.07-1.07 4.3 4.3 0 0 1-1.36-3.58V38.74l10 .19Zm58.11-64q9 0 14.28 3.92t5.28 12.35v22.57a5.57 5.57 0 0 1-1 3.49 8.78 8.78 0 0 1-2.71 2.23 26.06 26.06 0 0 1-6.5 2.44 36.88 36.88 0 0 1-9.05 1q-9.39 0-14.67-3.63t-5.28-10.7q0-6.39 4.16-9.83t11.81-4.12l13.56-1.36v-2.18q0-4.35-2.81-6.29A13.29 13.29 0 0 0 284 8a26.93 26.93 0 0 0-7.55 1 42.46 42.46 0 0 0-6.45 2.43 8.34 8.34 0 0 1-1.55-1.89 4.49 4.49 0 0 1-.68-2.37q0-3 3.29-4.55a26.7 26.7 0 0 1 6.26-1.94 39.34 39.34 0 0 1 7.22-.68m.29 40.28a21 21 0 0 0 5.95-.73 17.09 17.09 0 0 0 3.63-1.4V25.67l-10.75 1.06a14 14 0 0 0-6.73 2 5.38 5.38 0 0 0-2.28 4.7 5.91 5.91 0 0 0 2.52 5q2.54 1.84 7.66 1.84M321 11.05v14.23h-10V10.85A6.7 6.7 0 0 1 312 7a11 11 0 0 1 3-2.86 25 25 0 0 1 7.12-2.9A38 38 0 0 1 331.85.1q8.43 0 8.42 4.75a6.3 6.3 0 0 1-.34 2.15 8.76 8.76 0 0 1-.82 1.74c-.64-.13-1.47-.26-2.47-.39a23.68 23.68 0 0 0-3.05-.19 29.22 29.22 0 0 0-7.21.82 20.76 20.76 0 0 0-5.38 2.07m-10 10.07 10 .88v24.5q-.67.19-1.89.48a11.59 11.59 0 0 1-2.66.29 6.53 6.53 0 0 1-4.07-1.07 4.15 4.15 0 0 1-1.38-3.5V21.12ZM22.09 77.83q9 0 14.28 3.92t5.28 12.35v22.56a5.57 5.57 0 0 1-1 3.49 8.66 8.66 0 0 1-2.65 2.23 26.06 26.06 0 0 1-6.53 2.47 36.88 36.88 0 0 1-9 1q-9.39 0-14.67-3.63t-5.28-10.7q0-6.39 4.16-9.83t11.73-4.09L32 96.24V94q0-4.35-2.81-6.29a13.29 13.29 0 0 0-7.65-1.94A26.62 26.62 0 0 0 14 86.84a42.46 42.46 0 0 0-6.44 2.42A8.34 8.34 0 0 1 6 87.37 4.49 4.49 0 0 1 5.33 85q0-3 3.29-4.55a27.25 27.25 0 0 1 6.24-1.94 37.85 37.85 0 0 1 7.23-.68m.29 40.28a21.15 21.15 0 0 0 6-.73A17.09 17.09 0 0 0 32 116v-12.51l-10.75 1.06a13.84 13.84 0 0 0-6.73 2 5.38 5.38 0 0 0-2.28 4.7 5.88 5.88 0 0 0 2.52 5q2.52 1.85 7.65 1.84M71.49 86a14 14 0 0 0-10.27 4.12q-4.17 4.11-4.16 11.86t4 11.72a14 14 0 0 0 10.41 4.07 17.62 17.62 0 0 0 6.39-1 25.06 25.06 0 0 0 4.55-2.28 7.1 7.1 0 0 1 2 1.84 4.14 4.14 0 0 1 .77 2.52q0 3-4 5a23.05 23.05 0 0 1-10.27 2 28.46 28.46 0 0 1-12.49-2.61 19.11 19.11 0 0 1-8.42-8.03q-3-5.33-3.05-13.27t3.2-13.36a20.66 20.66 0 0 1 8.62-8 26.19 26.19 0 0 1 11.91-2.71A20.77 20.77 0 0 1 80.83 80c2.62 1.45 3.92 3.15 3.92 5.08a4.16 4.16 0 0 1-.75 2.43 6.06 6.06 0 0 1-1.79 1.74 23.41 23.41 0 0 0-4.55-2.33 17.42 17.42 0 0 0-6.19-1M111 77.83q9 0 14.28 3.92t5.28 12.35v22.56a5.57 5.57 0 0 1-1 3.49 8.66 8.66 0 0 1-2.71 2.23 26 26 0 0 1-6.54 2.47 36.88 36.88 0 0 1-9 1q-9.39 0-14.67-3.63t-5.28-10.7q0-6.39 4.16-9.83t11.81-4.11l13.56-1.36V94q0-4.35-2.81-6.29a13.29 13.29 0 0 0-7.65-1.94 26.62 26.62 0 0 0-7.51 1.06 42.46 42.46 0 0 0-6.44 2.42 8.34 8.34 0 0 1-1.55-1.89 4.49 4.49 0 0 1-.72-2.36q0-3 3.29-4.55a27.25 27.25 0 0 1 6.24-1.94 38 38 0 0 1 7.24-.68m.29 40.28a21.15 21.15 0 0 0 6-.73 17.09 17.09 0 0 0 3.63-1.4v-12.49l-10.75 1.06a13.84 13.84 0 0 0-6.73 2 5.38 5.38 0 0 0-2.28 4.7 5.88 5.88 0 0 0 2.52 5q2.52 1.85 7.65 1.84m59.03-2.5V84.12h10v32.25a5.66 5.66 0 0 1-.87 3.29 9 9 0 0 1-2.81 2.42 26.32 26.32 0 0 1-5.91 2.57 28.49 28.49 0 0 1-8.72 1.21 30.4 30.4 0 0 1-12.83-2.52 18.61 18.61 0 0 1-8.52-7.8q-3-5.28-3.05-13.51 0-8.43 3-13.75a18.8 18.8 0 0 1 8.23-7.89 25.55 25.55 0 0 1 11.42-2.57 23.49 23.49 0 0 1 6.88 1 15.17 15.17 0 0 1 5 2.42v8.72a15.87 15.87 0 0 0-4.45-2.86 15.29 15.29 0 0 0-6.3-1.21 15 15 0 0 0-6.92 1.6 11.41 11.41 0 0 0-5 5.18 20.81 20.81 0 0 0-1.84 9.49q0 8.13 3.87 11.91t10.36 3.78a15.35 15.35 0 0 0 5-.68 17.22 17.22 0 0 0 3.46-1.55m10-29.24h-10V61.66c.45-.13 1.1-.29 1.94-.48a11.8 11.8 0 0 1 2.61-.29 6.68 6.68 0 0 1 4.11 1 4.23 4.23 0 0 1 1.31 3.53v20.93Zm14.02 20.98-.49-7.26 27.5-3.87a11.7 11.7 0 0 0-3.2-7.6q-2.91-3-8.23-3a11.76 11.76 0 0 0-9 3.87q-3.59 3.87-3.68 11l.19 3.68q.78 6.87 4.94 10.31t10.94 3.44a21.27 21.27 0 0 0 7.46-1.26 23.29 23.29 0 0 0 5.41-2.67 5.54 5.54 0 0 1 1.89 1.84 4.71 4.71 0 0 1 .73 2.52 5 5 0 0 1-2.13 3.87 15.14 15.14 0 0 1-5.76 2.71 32 32 0 0 1-8.18 1 29.28 29.28 0 0 1-13.07-2.76 19.85 19.85 0 0 1-8.71-8.23 26.81 26.81 0 0 1-3.1-13.41 28.07 28.07 0 0 1 1.69-10.12 20.81 20.81 0 0 1 4.7-7.41 19.86 19.86 0 0 1 7.07-4.55 24.34 24.34 0 0 1 8.67-1.63 22.17 22.17 0 0 1 10.8 2.57 18.41 18.41 0 0 1 7.31 7.12 20.47 20.47 0 0 1 2.61 10.36 4.76 4.76 0 0 1-1.16 3.54 5.71 5.71 0 0 1-3.29 1.4ZM322.65 114q-1.65-3.2-3.78-8.23t-4.46-11.43Q312.09 88 310 80.73a5.65 5.65 0 0 1 2.14-1.73 6.92 6.92 0 0 1 3.05-.68 5.85 5.85 0 0 1 3.49 1 6.54 6.54 0 0 1 2.13 3.48q2.61 7.84 5.52 15.49t6.2 15.78h.39a106.73 106.73 0 0 0 4-10.07q2-5.91 3.92-12.39c1.26-4.32 2.28-8.43 3.05-12.3a16.82 16.82 0 0 1 2-.68 8.57 8.57 0 0 1 2.23-.29 6 6 0 0 1 3.53 1 3.49 3.49 0 0 1 1.4 3.1 28.46 28.46 0 0 1-.82 5.66c-.55 2.49-1.32 5.31-2.33 8.47s-2.13 6.47-3.39 9.93-2.63 6.83-4.11 10.12-3 6.26-4.46 8.91a73.48 73.48 0 0 1-8.57 13q-3.92 4.45-7.41 4.45a5.86 5.86 0 0 1-4.26-1.5 6.11 6.11 0 0 1-1.84-3.63c1.36-1.23 2.87-2.76 4.55-4.6a71.44 71.44 0 0 0 4.89-6 51.25 51.25 0 0 0 3.92-6.15 8.24 8.24 0 0 1-3.2-1.89 18 18 0 0 1-3.38-5.08M11.81 24.19 27 39.86a7.27 7.27 0 0 1-1.62 4.53 5.94 5.94 0 0 1-5 2.09 6.17 6.17 0 0 1-3.71-1.16 19.66 19.66 0 0 1-3.13-2.79L1.5 29.65a10.08 10.08 0 0 1-1-2.38 9.63 9.63 0 0 1-.46-3A10.91 10.91 0 0 1 .7 20a7 7 0 0 1 1.74-2.55L19.39.4A10.19 10.19 0 0 1 24.44 3a5.42 5.42 0 0 1 1.68 3.83 6.81 6.81 0 0 1-.87 3.48 20.11 20.11 0 0 1-3.42 4Zm373.82 77.69-15.21-15.67a7.27 7.27 0 0 1 1.58-4.53 5.94 5.94 0 0 1 5-2.09 6.17 6.17 0 0 1 3.71 1.16 20.16 20.16 0 0 1 3.14 2.79L396 96.42a10.08 10.08 0 0 1 1 2.38 9.63 9.63 0 0 1 .46 3 10.91 10.91 0 0 1-.7 4.29 7 7 0 0 1-1.76 2.51l-16.95 17.06a10.19 10.19 0 0 1-5.05-2.55 5.42 5.42 0 0 1-1.68-3.83 6.81 6.81 0 0 1 .87-3.48 20.11 20.11 0 0 1 3.42-4Z" style="fill:#fff" data-name="Layer 1"/></g></svg>